<?xml version="1.0" ?><!DOCTYPE svg  PUBLIC '-//W3C//DTD SVG 1.1//EN'  'http://www.w3.org/Graphics/SVG/1.1/DTD/svg11.dtd'><svg enable-background="new 0 0 512 512" height="512px" id="Aunt" version="1.1" viewBox="0 0 512 512" width="512px" xml:space="preserve" xmlns="http://www.w3.org/2000/svg" xmlns:xlink="http://www.w3.org/1999/xlink"><path d="M437,346.273c0-21.202-20-21.202-20-42.404c0-21.201,20-21.201,20-42.402c0-21.199-20-21.199-20-42.397  c0-21.2,20-21.2,20-42.399c0-21.198-19-37.896-19-37.896c0-35.981-20.6-67.381-50.586-82.998  C339.439,35.014,299.871,22.063,256,22.063c-43.371,0-82.534,12.659-110.45,33.008C115.042,70.513,94,102.197,94,138.563  c0,0-19,16.698-19,37.896c0,21.199,20,21.199,20,42.399c0,21.198-20,21.198-20,42.397c0,21.201,20,21.201,20,42.402  c0,21.202-20,21.202-20,42.404c0,0-0.5,25.5,18.5,30.5c0,0,25,7,44,12l31.082,3.289H231c0,0.138,0,0.211,0,0.211h112.418  l31.082-3.289c19-5,44-12,44-12C437.5,371.773,437,346.273,437,346.273z" fill="#5B412C"/><path d="M368.881,443.18c0,62.344-225.763,62.344-225.763,0c0-62.342,50.539-112.881,112.882-112.881  S368.881,380.838,368.881,443.18z" fill="#D1375F"/><path d="M256,330.299c-55.722,0-102.008,40.376-111.212,93.467c19.418,50.416,203.005,50.416,222.424,0  C358.008,370.675,311.722,330.299,256,330.299z" fill="#EF5B7B"/><path d="M368.881,443.18c0,62.344-225.763,62.344-225.763,0c0-62.342,50.539-112.881,112.882-112.881  S368.881,380.838,368.881,443.18z" fill="none"/><ellipse cx="256" cy="356.426" fill="#FFBF94" rx="61.367" ry="44.717"/><path d="M256,311.709c-27.366,0-50.539,13.057-58.452,31.084c7.913,18.027,31.086,31.083,58.452,31.083  s50.539-13.056,58.452-31.083C306.539,324.766,283.366,311.709,256,311.709z" fill="#ED9572"/><circle cx="116.731" cy="227.001" fill="#FFBF94" r="36.537"/><path d="M116.73,249.359c-17.752,0-32.542-12.663-35.843-29.448c-0.451,2.294-0.693,4.663-0.693,7.09  c0,20.178,16.358,36.536,36.536,36.536c20.179,0,36.537-16.358,36.537-36.536c0-2.427-0.242-4.796-0.693-7.09  C149.273,236.696,134.483,249.359,116.73,249.359z" fill="#ED9572"/><circle cx="395.269" cy="227.001" fill="#FFBF94" r="36.537"/><path d="M395.269,249.359c-17.752,0-32.542-12.663-35.843-29.448c-0.451,2.294-0.693,4.663-0.693,7.09  c0,20.178,16.357,36.536,36.536,36.536s36.537-16.358,36.537-36.536c0-2.427-0.242-4.796-0.693-7.09  C427.811,236.696,413.021,249.359,395.269,249.359z" fill="#ED9572"/><path d="M383.997,173.469C381.14,105.243,328.224,50.803,256.03,50.772v-0.001c-0.01,0-0.021,0-0.03,0  s-0.021,0-0.03,0v0.001c-72.193,0.03-125.109,54.471-127.967,122.696h-0.123v78.526h0.123  c2.857,68.224,60.131,100.864,127.967,100.884l0,0c0.01,0,0.021,0,0.03,0s0.021,0,0.03,0l0,0  c67.836-0.02,125.109-32.66,127.967-100.884h0.123v-78.526H383.997z" fill="#FFBF94"/><path d="M256.221,47.062L256,47.132l-0.221-0.07C115.895,25.195,120.506,189.923,120.506,189.923  s13.111,4.964,13.494,5.207c9.586,6.101,32.439-11.226,47.307-29.221c14.867-17.997,0.347-28.785,15.215-46.781  c14.869-17.999,29.39-7.211,44.26-25.21C249.406,83.478,237,60.063,256,67.063c19-7,6.594,16.415,15.219,26.855  c14.869,17.999,29.391,7.211,44.26,25.21c14.868,17.996,0.347,28.784,15.215,46.781c14.867,17.995,37.72,35.321,47.307,29.221  c0.383-0.243,13.494-5.207,13.494-5.207S396.105,25.195,256.221,47.062z" fill="#7C4E2E"/><path d="M260.724,443.938c-1.108-1.817-3.054-2.913-5.226-2.875c-2.128,0.037-4.077,1.199-5.123,3.053l-8.05,14.277  c-1.018,1.806-1.032,4.008-0.038,5.826l8.05,14.722c1.028,1.88,2.98,3.069,5.122,3.12c0.048,0.001,0.096,0.002,0.144,0.002  c2.088,0,4.03-1.088,5.121-2.876l8.846-14.5c1.171-1.919,1.171-4.331,0-6.249L260.724,443.938z" fill="#FFFFFF"/><path d="M222.724,438.938c-1.091-1.788-3.032-2.875-5.122-2.875c-0.034,0-0.068,0-0.104,0  c-2.128,0.037-4.077,1.199-5.123,3.053l-8.05,14.277c-1.018,1.806-1.032,4.008-0.038,5.826l8.05,14.722  c1.028,1.88,2.98,3.069,5.122,3.12c0.048,0.001,0.096,0.002,0.144,0.002c2.088,0,4.03-1.088,5.121-2.876l8.846-14.5  c1.171-1.919,1.171-4.331,0-6.249L222.724,438.938z" fill="#FFFFFF"/><path d="M307.569,453.438l-8.846-14.5c-1.108-1.817-3.063-2.92-5.226-2.875c-2.128,0.037-4.077,1.199-5.123,3.053  l-8.05,14.277c-1.018,1.806-1.032,4.008-0.038,5.826l8.05,14.722c1.028,1.88,2.98,3.069,5.122,3.12  c0.048,0.001,0.096,0.002,0.144,0.002c2.088,0,4.03-1.088,5.121-2.876l8.846-14.5C308.74,457.768,308.74,455.355,307.569,453.438z" fill="#FFFFFF"/><path d="M272.563,386.027l-16.065,13.297c-0.189,0.156-0.354,0.325-0.497,0.503  c-0.144-0.178-0.308-0.347-0.497-0.503l-16.066-13.297c-2.491-2.063-6.752-0.602-6.752,2.314v26.593  c0,2.917,4.261,4.377,6.752,2.314l16.066-13.296c0.189-0.156,0.354-0.326,0.497-0.504c0.143,0.178,0.308,0.348,0.497,0.504  l16.065,13.296c2.492,2.063,6.753,0.603,6.753-2.314v-26.593C279.315,385.426,275.055,383.965,272.563,386.027z" fill="#FFFFFF"/><circle cx="174.202" cy="261.355" fill="#F97A7A" r="30.538"/><circle cx="337.798" cy="261.355" fill="#F97A7A" r="30.538"/><circle cx="208.072" cy="207.914" fill="#493E2F" r="17.451"/><circle cx="304.17" cy="207.914" fill="#493E2F" r="17.451"/><path d="M256.545,285.234c-9.077,0-18.154-3.455-25.064-10.365c-2.344-2.344-2.344-6.143,0-8.486  c2.342-2.342,6.143-2.342,8.484,0c9.145,9.145,24.019,9.143,33.16,0c2.343-2.342,6.143-2.342,8.485,0  c2.343,2.344,2.343,6.143,0,8.486C274.699,281.779,265.623,285.234,256.545,285.234z" fill="#F97A7A"/></svg>